<svg width="230" height="96" viewBox="0 0 230 96" fill="none" xmlns="http://www.w3.org/2000/svg">
<g clip-path="url(#clip0_8_24)">
<g filter="url(#filter0_d_8_24)">
<path d="M100.591 60.4545L56.6818 82.8182V74.0909L90.3636 57.8636L90.0909 58.4091V57.0455L90.3636 57.5909L56.6818 41.3636V32.6364L100.591 55V60.4545Z" fill="#FF0000"/>
</g>
<g filter="url(#filter1_d_8_24)">
<path d="M100.591 60.4545L56.6818 82.8182V74.0909L90.3636 57.8636L90.0909 58.4091V57.0455L90.3636 57.5909L56.6818 41.3636V32.6364L100.591 55V60.4545Z" fill="#FF0000"/>
</g>
<g filter="url(#filter2_d_8_24)">
<path d="M2.40909 38.4545L46.3182 60.8182V52.0909L12.6364 35.8636L12.9091 36.4091V35.0455L12.6364 35.5909L46.3182 19.3636V10.6364L2.40909 33V38.4545Z" fill="#FF0000"/>
</g>
<g filter="url(#filter3_d_8_24)">
<path d="M2.40909 38.4545L46.3182 60.8182V52.0909L12.6364 35.8636L12.9091 36.4091V35.0455L12.6364 35.5909L46.3182 19.3636V10.6364L2.40909 33V38.4545Z" fill="#FF0000"/>
</g>
<path d="M90.1136 42V24.5455H100.58V26.4205H92.2273V32.3182H99.7955V34.1932H92.2273V42H90.1136ZM103.786 42V28.9091H105.729V30.8864H105.866C106.104 30.2386 106.536 29.7131 107.161 29.3097C107.786 28.9062 108.491 28.7045 109.275 28.7045C109.423 28.7045 109.607 28.7074 109.829 28.7131C110.05 28.7187 110.218 28.7273 110.332 28.7386V30.7841C110.263 30.767 110.107 30.7415 109.863 30.7074C109.624 30.6676 109.371 30.6477 109.104 30.6477C108.468 30.6477 107.9 30.7812 107.4 31.0483C106.906 31.3097 106.513 31.6733 106.224 32.1392C105.94 32.5994 105.798 33.125 105.798 33.7159V42H103.786ZM117.636 42.2727C116.454 42.2727 115.417 41.9915 114.525 41.429C113.638 40.8665 112.945 40.0795 112.445 39.0682C111.951 38.0568 111.704 36.875 111.704 35.5227C111.704 34.1591 111.951 32.9687 112.445 31.9517C112.945 30.9347 113.638 30.1449 114.525 29.5824C115.417 29.0199 116.454 28.7386 117.636 28.7386C118.817 28.7386 119.852 29.0199 120.738 29.5824C121.63 30.1449 122.323 30.9347 122.817 31.9517C123.317 32.9687 123.567 34.1591 123.567 35.5227C123.567 36.875 123.317 38.0568 122.817 39.0682C122.323 40.0795 121.63 40.8665 120.738 41.429C119.852 41.9915 118.817 42.2727 117.636 42.2727ZM117.636 40.4659C118.533 40.4659 119.272 40.2358 119.852 39.7756C120.431 39.3153 120.86 38.7102 121.138 37.9602C121.417 37.2102 121.556 36.3977 121.556 35.5227C121.556 34.6477 121.417 33.8324 121.138 33.0767C120.86 32.321 120.431 31.7102 119.852 31.2443C119.272 30.7784 118.533 30.5455 117.636 30.5455C116.738 30.5455 115.999 30.7784 115.42 31.2443C114.84 31.7102 114.411 32.321 114.133 33.0767C113.854 33.8324 113.715 34.6477 113.715 35.5227C113.715 36.3977 113.854 37.2102 114.133 37.9602C114.411 38.7102 114.84 39.3153 115.42 39.7756C115.999 40.2358 116.738 40.4659 117.636 40.4659ZM128.649 34.125V42H126.638V28.9091H128.581V30.9545H128.751C129.058 30.2898 129.524 29.7557 130.149 29.3523C130.774 28.9432 131.581 28.7386 132.57 28.7386C133.456 28.7386 134.232 28.9205 134.896 29.2841C135.561 29.642 136.078 30.1875 136.447 30.9205C136.817 31.6477 137.001 32.5682 137.001 33.6818V42H134.99V33.8182C134.99 32.7898 134.723 31.9886 134.189 31.4148C133.655 30.8352 132.922 30.5455 131.99 30.5455C131.348 30.5455 130.774 30.6847 130.268 30.9631C129.768 31.2415 129.374 31.6477 129.084 32.1818C128.794 32.7159 128.649 33.3636 128.649 34.125ZM146.37 28.9091V30.6136H139.586V28.9091H146.37ZM141.563 25.7727H143.575V38.25C143.575 38.8182 143.657 39.2443 143.822 39.5284C143.992 39.8068 144.208 39.9943 144.469 40.0909C144.737 40.1818 145.018 40.2273 145.313 40.2273C145.535 40.2273 145.717 40.2159 145.859 40.1932C146.001 40.1648 146.114 40.142 146.2 40.125L146.609 41.9318C146.472 41.983 146.282 42.0341 146.038 42.0852C145.793 42.142 145.484 42.1705 145.109 42.1705C144.54 42.1705 143.984 42.0483 143.438 41.804C142.898 41.5597 142.45 41.1875 142.092 40.6875C141.739 40.1875 141.563 39.5568 141.563 38.7955V25.7727ZM154.744 42.2727C153.482 42.2727 152.394 41.9943 151.479 41.4375C150.57 40.875 149.869 40.0909 149.374 39.0852C148.886 38.0739 148.641 36.8977 148.641 35.5568C148.641 34.2159 148.886 33.0341 149.374 32.0114C149.869 30.983 150.556 30.1818 151.437 29.608C152.323 29.0284 153.357 28.7386 154.539 28.7386C155.221 28.7386 155.894 28.8523 156.559 29.0795C157.224 29.3068 157.829 29.6761 158.374 30.1875C158.92 30.6932 159.354 31.3636 159.678 32.1989C160.002 33.0341 160.164 34.0625 160.164 35.2841V36.1364H150.073V34.3977H158.119C158.119 33.6591 157.971 33 157.675 32.4205C157.386 31.8409 156.971 31.3835 156.431 31.0483C155.897 30.7131 155.266 30.5455 154.539 30.5455C153.738 30.5455 153.045 30.7443 152.46 31.142C151.88 31.5341 151.434 32.0455 151.121 32.6761C150.809 33.3068 150.653 33.983 150.653 34.7045V35.8636C150.653 36.8523 150.823 37.6903 151.164 38.3778C151.511 39.0597 151.991 39.5795 152.604 39.9375C153.218 40.2898 153.931 40.4659 154.744 40.4659C155.272 40.4659 155.749 40.392 156.175 40.2443C156.607 40.0909 156.979 39.8636 157.292 39.5625C157.604 39.2557 157.846 38.875 158.016 38.4205L159.96 38.9659C159.755 39.625 159.411 40.2045 158.928 40.7045C158.445 41.1989 157.849 41.5852 157.138 41.8636C156.428 42.1364 155.63 42.2727 154.744 42.2727ZM165.235 34.125V42H163.224V28.9091H165.167V30.9545H165.337C165.644 30.2898 166.11 29.7557 166.735 29.3523C167.36 28.9432 168.167 28.7386 169.156 28.7386C170.042 28.7386 170.817 28.9205 171.482 29.2841C172.147 29.642 172.664 30.1875 173.033 30.9205C173.403 31.6477 173.587 32.5682 173.587 33.6818V42H171.576V33.8182C171.576 32.7898 171.309 31.9886 170.775 31.4148C170.241 30.8352 169.508 30.5455 168.576 30.5455C167.934 30.5455 167.36 30.6847 166.854 30.9631C166.354 31.2415 165.96 31.6477 165.67 32.1818C165.38 32.7159 165.235 33.3636 165.235 34.125ZM182.206 42.2727C181.115 42.2727 180.152 41.9972 179.317 41.446C178.482 40.8892 177.828 40.1051 177.357 39.0938C176.885 38.0767 176.649 36.875 176.649 35.4886C176.649 34.1136 176.885 32.9205 177.357 31.9091C177.828 30.8977 178.484 30.1165 179.325 29.5653C180.166 29.0142 181.138 28.7386 182.24 28.7386C183.092 28.7386 183.766 28.8807 184.26 29.1648C184.76 29.4432 185.141 29.7614 185.402 30.1193C185.669 30.4716 185.876 30.7614 186.024 30.9886H186.195V24.5455H188.206V42H186.263V39.9886H186.024C185.876 40.2273 185.666 40.5284 185.393 40.892C185.121 41.25 184.732 41.571 184.226 41.8551C183.72 42.1335 183.047 42.2727 182.206 42.2727ZM182.479 40.4659C183.286 40.4659 183.967 40.2557 184.524 39.8352C185.081 39.4091 185.504 38.821 185.794 38.071C186.084 37.3153 186.229 36.4432 186.229 35.4545C186.229 34.4773 186.087 33.6222 185.803 32.8892C185.518 32.1506 185.098 31.5767 184.541 31.1676C183.984 30.7528 183.297 30.5455 182.479 30.5455C181.626 30.5455 180.916 30.7642 180.348 31.2017C179.786 31.6335 179.362 32.2216 179.078 32.9659C178.8 33.7045 178.661 34.5341 178.661 35.4545C178.661 36.3864 178.803 37.233 179.087 37.9943C179.376 38.75 179.803 39.3523 180.365 39.8011C180.933 40.2443 181.638 40.4659 182.479 40.4659Z" fill="black"/>
<g filter="url(#filter4_d_8_24)">
<line x1="51" y1="5" x2="51" y2="71" stroke="#FF8A00" stroke-width="4"/>
</g>
<path d="M191.5 58H186.114V40.5455H191.739C193.432 40.5455 194.881 40.8949 196.085 41.5938C197.29 42.2869 198.213 43.2841 198.855 44.5852C199.497 45.8807 199.818 47.4318 199.818 49.2386C199.818 51.0568 199.494 52.6222 198.847 53.9347C198.199 55.2415 197.256 56.2472 196.017 56.9517C194.778 57.6506 193.273 58 191.5 58ZM188.227 56.125H191.364C192.807 56.125 194.003 55.8466 194.952 55.2898C195.901 54.733 196.608 53.9403 197.074 52.9119C197.54 51.8835 197.773 50.6591 197.773 49.2386C197.773 47.8295 197.543 46.6165 197.082 45.5994C196.622 44.5767 195.935 43.7926 195.02 43.2472C194.105 42.696 192.966 42.4205 191.602 42.4205H188.227V56.125ZM208.58 58.2727C207.318 58.2727 206.23 57.9943 205.315 57.4375C204.406 56.875 203.705 56.0909 203.21 55.0852C202.722 54.0739 202.477 52.8977 202.477 51.5568C202.477 50.2159 202.722 49.0341 203.21 48.0114C203.705 46.983 204.392 46.1818 205.273 45.608C206.159 45.0284 207.193 44.7386 208.375 44.7386C209.057 44.7386 209.73 44.8523 210.395 45.0795C211.06 45.3068 211.665 45.6761 212.21 46.1875C212.756 46.6932 213.19 47.3636 213.514 48.1989C213.838 49.0341 214 50.0625 214 51.2841V52.1364H203.909V50.3977H211.955C211.955 49.6591 211.807 49 211.511 48.4205C211.222 47.8409 210.807 47.3835 210.267 47.0483C209.733 46.7131 209.102 46.5455 208.375 46.5455C207.574 46.5455 206.881 46.7443 206.295 47.142C205.716 47.5341 205.27 48.0455 204.957 48.6761C204.645 49.3068 204.489 49.983 204.489 50.7045V51.8636C204.489 52.8523 204.659 53.6903 205 54.3778C205.347 55.0597 205.827 55.5795 206.44 55.9375C207.054 56.2898 207.767 56.4659 208.58 56.4659C209.108 56.4659 209.585 56.392 210.011 56.2443C210.443 56.0909 210.815 55.8636 211.128 55.5625C211.44 55.2557 211.682 54.875 211.852 54.4205L213.795 54.9659C213.591 55.625 213.247 56.2045 212.764 56.7045C212.281 57.1989 211.685 57.5852 210.974 57.8636C210.264 58.1364 209.466 58.2727 208.58 58.2727ZM227.366 44.9091L222.525 58H220.479L215.638 44.9091H217.82L221.434 55.3409H221.57L225.184 44.9091H227.366Z" fill="black"/>
</g>
<defs>
<filter id="filter0_d_8_24" x="52.6818" y="32.6364" width="51.9091" height="58.1818" filterUnits="userSpaceOnUse" color-interpolation-filters="sRGB">
<feFlood flood-opacity="0" result="BackgroundImageFix"/>
<feColorMatrix in="SourceAlpha" type="matrix" values="0 0 0 0 0 0 0 0 0 0 0 0 0 0 0 0 0 0 127 0" result="hardAlpha"/>
<feOffset dy="4"/>
<feGaussianBlur stdDeviation="2"/>
<feComposite in2="hardAlpha" operator="out"/>
<feColorMatrix type="matrix" values="0 0 0 0 0 0 0 0 0 0 0 0 0 0 0 0 0 0 0.25 0"/>
<feBlend mode="normal" in2="BackgroundImageFix" result="effect1_dropShadow_8_24"/>
<feBlend mode="normal" in="SourceGraphic" in2="effect1_dropShadow_8_24" result="shape"/>
</filter>
<filter id="filter1_d_8_24" x="52.6818" y="32.6364" width="51.9091" height="58.1818" filterUnits="userSpaceOnUse" color-interpolation-filters="sRGB">
<feFlood flood-opacity="0" result="BackgroundImageFix"/>
<feColorMatrix in="SourceAlpha" type="matrix" values="0 0 0 0 0 0 0 0 0 0 0 0 0 0 0 0 0 0 127 0" result="hardAlpha"/>
<feOffset dy="4"/>
<feGaussianBlur stdDeviation="2"/>
<feComposite in2="hardAlpha" operator="out"/>
<feColorMatrix type="matrix" values="0 0 0 0 0 0 0 0 0 0 0 0 0 0 0 0 0 0 0.25 0"/>
<feBlend mode="normal" in2="BackgroundImageFix" result="effect1_dropShadow_8_24"/>
<feBlend mode="normal" in="SourceGraphic" in2="effect1_dropShadow_8_24" result="shape"/>
</filter>
<filter id="filter2_d_8_24" x="-1.5909" y="10.6364" width="51.9091" height="58.1818" filterUnits="userSpaceOnUse" color-interpolation-filters="sRGB">
<feFlood flood-opacity="0" result="BackgroundImageFix"/>
<feColorMatrix in="SourceAlpha" type="matrix" values="0 0 0 0 0 0 0 0 0 0 0 0 0 0 0 0 0 0 127 0" result="hardAlpha"/>
<feOffset dy="4"/>
<feGaussianBlur stdDeviation="2"/>
<feComposite in2="hardAlpha" operator="out"/>
<feColorMatrix type="matrix" values="0 0 0 0 0 0 0 0 0 0 0 0 0 0 0 0 0 0 0.25 0"/>
<feBlend mode="normal" in2="BackgroundImageFix" result="effect1_dropShadow_8_24"/>
<feBlend mode="normal" in="SourceGraphic" in2="effect1_dropShadow_8_24" result="shape"/>
</filter>
<filter id="filter3_d_8_24" x="-1.5909" y="10.6364" width="51.9091" height="58.1818" filterUnits="userSpaceOnUse" color-interpolation-filters="sRGB">
<feFlood flood-opacity="0" result="BackgroundImageFix"/>
<feColorMatrix in="SourceAlpha" type="matrix" values="0 0 0 0 0 0 0 0 0 0 0 0 0 0 0 0 0 0 127 0" result="hardAlpha"/>
<feOffset dy="4"/>
<feGaussianBlur stdDeviation="2"/>
<feComposite in2="hardAlpha" operator="out"/>
<feColorMatrix type="matrix" values="0 0 0 0 0 0 0 0 0 0 0 0 0 0 0 0 0 0 0.25 0"/>
<feBlend mode="normal" in2="BackgroundImageFix" result="effect1_dropShadow_8_24"/>
<feBlend mode="normal" in="SourceGraphic" in2="effect1_dropShadow_8_24" result="shape"/>
</filter>
<filter id="filter4_d_8_24" x="45" y="5" width="12" height="74" filterUnits="userSpaceOnUse" color-interpolation-filters="sRGB">
<feFlood flood-opacity="0" result="BackgroundImageFix"/>
<feColorMatrix in="SourceAlpha" type="matrix" values="0 0 0 0 0 0 0 0 0 0 0 0 0 0 0 0 0 0 127 0" result="hardAlpha"/>
<feOffset dy="4"/>
<feGaussianBlur stdDeviation="2"/>
<feComposite in2="hardAlpha" operator="out"/>
<feColorMatrix type="matrix" values="0 0 0 0 0 0 0 0 0 0 0 0 0 0 0 0 0 0 0.25 0"/>
<feBlend mode="normal" in2="BackgroundImageFix" result="effect1_dropShadow_8_24"/>
<feBlend mode="normal" in="SourceGraphic" in2="effect1_dropShadow_8_24" result="shape"/>
</filter>
<clipPath id="clip0_8_24">
<rect width="230" height="96" fill="white"/>
</clipPath>
</defs>
</svg>
