<svg width="392" height="158" viewBox="0 0 392 158" fill="none" xmlns="http://www.w3.org/2000/svg">
<g clip-path="url(#clip0_1_15)">
<rect width="392" height="158" fill="white"/>
<g filter="url(#filter0_d_1_15)">
<path d="M163.591 82.4545L119.682 104.818V96.0909L153.364 79.8636L153.091 80.4091V79.0455L153.364 79.5909L119.682 63.3636V54.6364L163.591 77V82.4545Z" fill="#FF0000"/>
</g>
<g filter="url(#filter1_d_1_15)">
<path d="M163.591 82.4545L119.682 104.818V96.0909L153.364 79.8636L153.091 80.4091V79.0455L153.364 79.5909L119.682 63.3636V54.6364L163.591 77V82.4545Z" fill="#FF0000"/>
</g>
<g filter="url(#filter2_d_1_15)">
<path d="M65.4091 57.4545L109.318 79.8182V71.0909L75.6364 54.8636L75.9091 55.4091V54.0455L75.6364 54.5909L109.318 38.3636V29.6364L65.4091 52V57.4545Z" fill="#FF0000"/>
</g>
<g filter="url(#filter3_d_1_15)">
<path d="M65.4091 57.4545L109.318 79.8182V71.0909L75.6364 54.8636L75.9091 55.4091V54.0455L75.6364 54.5909L109.318 38.3636V29.6364L65.4091 52V57.4545Z" fill="#FF0000"/>
</g>
<path d="M153.114 68V50.5455H163.58V52.4205H155.227V58.3182H162.795V60.1932H155.227V68H153.114ZM166.786 68V54.9091H168.729V56.8864H168.866C169.104 56.2386 169.536 55.7131 170.161 55.3097C170.786 54.9062 171.491 54.7045 172.275 54.7045C172.423 54.7045 172.607 54.7074 172.829 54.7131C173.05 54.7187 173.218 54.7273 173.332 54.7386V56.7841C173.263 56.767 173.107 56.7415 172.863 56.7074C172.624 56.6676 172.371 56.6477 172.104 56.6477C171.468 56.6477 170.9 56.7812 170.4 57.0483C169.906 57.3097 169.513 57.6733 169.224 58.1392C168.94 58.5994 168.798 59.125 168.798 59.7159V68H166.786ZM180.636 68.2727C179.454 68.2727 178.417 67.9915 177.525 67.429C176.638 66.8665 175.945 66.0795 175.445 65.0682C174.951 64.0568 174.704 62.875 174.704 61.5227C174.704 60.1591 174.951 58.9687 175.445 57.9517C175.945 56.9347 176.638 56.1449 177.525 55.5824C178.417 55.0199 179.454 54.7386 180.636 54.7386C181.817 54.7386 182.852 55.0199 183.738 55.5824C184.63 56.1449 185.323 56.9347 185.817 57.9517C186.317 58.9687 186.567 60.1591 186.567 61.5227C186.567 62.875 186.317 64.0568 185.817 65.0682C185.323 66.0795 184.63 66.8665 183.738 67.429C182.852 67.9915 181.817 68.2727 180.636 68.2727ZM180.636 66.4659C181.533 66.4659 182.272 66.2358 182.852 65.7756C183.431 65.3153 183.86 64.7102 184.138 63.9602C184.417 63.2102 184.556 62.3977 184.556 61.5227C184.556 60.6477 184.417 59.8324 184.138 59.0767C183.86 58.321 183.431 57.7102 182.852 57.2443C182.272 56.7784 181.533 56.5455 180.636 56.5455C179.738 56.5455 178.999 56.7784 178.42 57.2443C177.84 57.7102 177.411 58.321 177.133 59.0767C176.854 59.8324 176.715 60.6477 176.715 61.5227C176.715 62.3977 176.854 63.2102 177.133 63.9602C177.411 64.7102 177.84 65.3153 178.42 65.7756C178.999 66.2358 179.738 66.4659 180.636 66.4659ZM191.649 60.125V68H189.638V54.9091H191.581V56.9545H191.751C192.058 56.2898 192.524 55.7557 193.149 55.3523C193.774 54.9432 194.581 54.7386 195.57 54.7386C196.456 54.7386 197.232 54.9205 197.896 55.2841C198.561 55.642 199.078 56.1875 199.447 56.9205C199.817 57.6477 200.001 58.5682 200.001 59.6818V68H197.99V59.8182C197.99 58.7898 197.723 57.9886 197.189 57.4148C196.655 56.8352 195.922 56.5455 194.99 56.5455C194.348 56.5455 193.774 56.6847 193.268 56.9631C192.768 57.2415 192.374 57.6477 192.084 58.1818C191.794 58.7159 191.649 59.3636 191.649 60.125ZM209.37 54.9091V56.6136H202.586V54.9091H209.37ZM204.563 51.7727H206.575V64.25C206.575 64.8182 206.657 65.2443 206.822 65.5284C206.992 65.8068 207.208 65.9943 207.469 66.0909C207.737 66.1818 208.018 66.2273 208.313 66.2273C208.535 66.2273 208.717 66.2159 208.859 66.1932C209.001 66.1648 209.114 66.142 209.2 66.125L209.609 67.9318C209.472 67.983 209.282 68.0341 209.038 68.0852C208.793 68.142 208.484 68.1705 208.109 68.1705C207.54 68.1705 206.984 68.0483 206.438 67.804C205.898 67.5597 205.45 67.1875 205.092 66.6875C204.739 66.1875 204.563 65.5568 204.563 64.7955V51.7727ZM217.744 68.2727C216.482 68.2727 215.394 67.9943 214.479 67.4375C213.57 66.875 212.869 66.0909 212.374 65.0852C211.886 64.0739 211.641 62.8977 211.641 61.5568C211.641 60.2159 211.886 59.0341 212.374 58.0114C212.869 56.983 213.556 56.1818 214.437 55.608C215.323 55.0284 216.357 54.7386 217.539 54.7386C218.221 54.7386 218.894 54.8523 219.559 55.0795C220.224 55.3068 220.829 55.6761 221.374 56.1875C221.92 56.6932 222.354 57.3636 222.678 58.1989C223.002 59.0341 223.164 60.0625 223.164 61.2841V62.1364H213.073V60.3977H221.119C221.119 59.6591 220.971 59 220.675 58.4205C220.386 57.8409 219.971 57.3835 219.431 57.0483C218.897 56.7131 218.266 56.5455 217.539 56.5455C216.738 56.5455 216.045 56.7443 215.46 57.142C214.88 57.5341 214.434 58.0455 214.121 58.6761C213.809 59.3068 213.653 59.983 213.653 60.7045V61.8636C213.653 62.8523 213.823 63.6903 214.164 64.3778C214.511 65.0597 214.991 65.5795 215.604 65.9375C216.218 66.2898 216.931 66.4659 217.744 66.4659C218.272 66.4659 218.749 66.392 219.175 66.2443C219.607 66.0909 219.979 65.8636 220.292 65.5625C220.604 65.2557 220.846 64.875 221.016 64.4205L222.96 64.9659C222.755 65.625 222.411 66.2045 221.928 66.7045C221.445 67.1989 220.849 67.5852 220.138 67.8636C219.428 68.1364 218.63 68.2727 217.744 68.2727ZM228.235 60.125V68H226.224V54.9091H228.167V56.9545H228.337C228.644 56.2898 229.11 55.7557 229.735 55.3523C230.36 54.9432 231.167 54.7386 232.156 54.7386C233.042 54.7386 233.817 54.9205 234.482 55.2841C235.147 55.642 235.664 56.1875 236.033 56.9205C236.403 57.6477 236.587 58.5682 236.587 59.6818V68H234.576V59.8182C234.576 58.7898 234.309 57.9886 233.775 57.4148C233.241 56.8352 232.508 56.5455 231.576 56.5455C230.934 56.5455 230.36 56.6847 229.854 56.9631C229.354 57.2415 228.96 57.6477 228.67 58.1818C228.38 58.7159 228.235 59.3636 228.235 60.125ZM245.206 68.2727C244.115 68.2727 243.152 67.9972 242.317 67.446C241.482 66.8892 240.828 66.1051 240.357 65.0938C239.885 64.0767 239.649 62.875 239.649 61.4886C239.649 60.1136 239.885 58.9205 240.357 57.9091C240.828 56.8977 241.484 56.1165 242.325 55.5653C243.166 55.0142 244.138 54.7386 245.24 54.7386C246.092 54.7386 246.766 54.8807 247.26 55.1648C247.76 55.4432 248.141 55.7614 248.402 56.1193C248.669 56.4716 248.876 56.7614 249.024 56.9886H249.195V50.5455H251.206V68H249.263V65.9886H249.024C248.876 66.2273 248.666 66.5284 248.393 66.892C248.121 67.25 247.732 67.571 247.226 67.8551C246.72 68.1335 246.047 68.2727 245.206 68.2727ZM245.479 66.4659C246.286 66.4659 246.967 66.2557 247.524 65.8352C248.081 65.4091 248.504 64.821 248.794 64.071C249.084 63.3153 249.229 62.4432 249.229 61.4545C249.229 60.4773 249.087 59.6222 248.803 58.8892C248.518 58.1506 248.098 57.5767 247.541 57.1676C246.984 56.7528 246.297 56.5455 245.479 56.5455C244.626 56.5455 243.916 56.7642 243.348 57.2017C242.786 57.6335 242.362 58.2216 242.078 58.9659C241.8 59.7045 241.661 60.5341 241.661 61.4545C241.661 62.3864 241.803 63.233 242.087 63.9943C242.376 64.75 242.803 65.3523 243.365 65.8011C243.933 66.2443 244.638 66.4659 245.479 66.4659Z" fill="black"/>
<g filter="url(#filter4_d_1_15)">
<line x1="114" y1="29" x2="114" y2="104" stroke="#FF8A00" stroke-width="4"/>
</g>
<path d="M254.5 85H249.114V67.5455H254.739C256.432 67.5455 257.881 67.8949 259.085 68.5938C260.29 69.2869 261.213 70.2841 261.855 71.5852C262.497 72.8807 262.818 74.4318 262.818 76.2386C262.818 78.0568 262.494 79.6222 261.847 80.9347C261.199 82.2415 260.256 83.2472 259.017 83.9517C257.778 84.6506 256.273 85 254.5 85ZM251.227 83.125H254.364C255.807 83.125 257.003 82.8466 257.952 82.2898C258.901 81.733 259.608 80.9403 260.074 79.9119C260.54 78.8835 260.773 77.6591 260.773 76.2386C260.773 74.8295 260.543 73.6165 260.082 72.5994C259.622 71.5767 258.935 70.7926 258.02 70.2472C257.105 69.696 255.966 69.4205 254.602 69.4205H251.227V83.125ZM271.58 85.2727C270.318 85.2727 269.23 84.9943 268.315 84.4375C267.406 83.875 266.705 83.0909 266.21 82.0852C265.722 81.0739 265.477 79.8977 265.477 78.5568C265.477 77.2159 265.722 76.0341 266.21 75.0114C266.705 73.983 267.392 73.1818 268.273 72.608C269.159 72.0284 270.193 71.7386 271.375 71.7386C272.057 71.7386 272.73 71.8523 273.395 72.0795C274.06 72.3068 274.665 72.6761 275.21 73.1875C275.756 73.6932 276.19 74.3636 276.514 75.1989C276.838 76.0341 277 77.0625 277 78.2841V79.1364H266.909V77.3977H274.955C274.955 76.6591 274.807 76 274.511 75.4205C274.222 74.8409 273.807 74.3835 273.267 74.0483C272.733 73.7131 272.102 73.5455 271.375 73.5455C270.574 73.5455 269.881 73.7443 269.295 74.142C268.716 74.5341 268.27 75.0455 267.957 75.6761C267.645 76.3068 267.489 76.983 267.489 77.7045V78.8636C267.489 79.8523 267.659 80.6903 268 81.3778C268.347 82.0597 268.827 82.5795 269.44 82.9375C270.054 83.2898 270.767 83.4659 271.58 83.4659C272.108 83.4659 272.585 83.392 273.011 83.2443C273.443 83.0909 273.815 82.8636 274.128 82.5625C274.44 82.2557 274.682 81.875 274.852 81.4205L276.795 81.9659C276.591 82.625 276.247 83.2045 275.764 83.7045C275.281 84.1989 274.685 84.5852 273.974 84.8636C273.264 85.1364 272.466 85.2727 271.58 85.2727ZM290.366 71.9091L285.525 85H283.479L278.638 71.9091H280.82L284.434 82.3409H284.57L288.184 71.9091H290.366Z" fill="black"/>
</g>
<defs>
<filter id="filter0_d_1_15" x="115.682" y="54.6364" width="51.9091" height="58.1818" filterUnits="userSpaceOnUse" color-interpolation-filters="sRGB">
<feFlood flood-opacity="0" result="BackgroundImageFix"/>
<feColorMatrix in="SourceAlpha" type="matrix" values="0 0 0 0 0 0 0 0 0 0 0 0 0 0 0 0 0 0 127 0" result="hardAlpha"/>
<feOffset dy="4"/>
<feGaussianBlur stdDeviation="2"/>
<feComposite in2="hardAlpha" operator="out"/>
<feColorMatrix type="matrix" values="0 0 0 0 0 0 0 0 0 0 0 0 0 0 0 0 0 0 0.25 0"/>
<feBlend mode="normal" in2="BackgroundImageFix" result="effect1_dropShadow_1_15"/>
<feBlend mode="normal" in="SourceGraphic" in2="effect1_dropShadow_1_15" result="shape"/>
</filter>
<filter id="filter1_d_1_15" x="115.682" y="54.6364" width="51.9091" height="58.1818" filterUnits="userSpaceOnUse" color-interpolation-filters="sRGB">
<feFlood flood-opacity="0" result="BackgroundImageFix"/>
<feColorMatrix in="SourceAlpha" type="matrix" values="0 0 0 0 0 0 0 0 0 0 0 0 0 0 0 0 0 0 127 0" result="hardAlpha"/>
<feOffset dy="4"/>
<feGaussianBlur stdDeviation="2"/>
<feComposite in2="hardAlpha" operator="out"/>
<feColorMatrix type="matrix" values="0 0 0 0 0 0 0 0 0 0 0 0 0 0 0 0 0 0 0.25 0"/>
<feBlend mode="normal" in2="BackgroundImageFix" result="effect1_dropShadow_1_15"/>
<feBlend mode="normal" in="SourceGraphic" in2="effect1_dropShadow_1_15" result="shape"/>
</filter>
<filter id="filter2_d_1_15" x="61.4091" y="29.6364" width="51.9091" height="58.1818" filterUnits="userSpaceOnUse" color-interpolation-filters="sRGB">
<feFlood flood-opacity="0" result="BackgroundImageFix"/>
<feColorMatrix in="SourceAlpha" type="matrix" values="0 0 0 0 0 0 0 0 0 0 0 0 0 0 0 0 0 0 127 0" result="hardAlpha"/>
<feOffset dy="4"/>
<feGaussianBlur stdDeviation="2"/>
<feComposite in2="hardAlpha" operator="out"/>
<feColorMatrix type="matrix" values="0 0 0 0 0 0 0 0 0 0 0 0 0 0 0 0 0 0 0.25 0"/>
<feBlend mode="normal" in2="BackgroundImageFix" result="effect1_dropShadow_1_15"/>
<feBlend mode="normal" in="SourceGraphic" in2="effect1_dropShadow_1_15" result="shape"/>
</filter>
<filter id="filter3_d_1_15" x="61.4091" y="29.6364" width="51.9091" height="58.1818" filterUnits="userSpaceOnUse" color-interpolation-filters="sRGB">
<feFlood flood-opacity="0" result="BackgroundImageFix"/>
<feColorMatrix in="SourceAlpha" type="matrix" values="0 0 0 0 0 0 0 0 0 0 0 0 0 0 0 0 0 0 127 0" result="hardAlpha"/>
<feOffset dy="4"/>
<feGaussianBlur stdDeviation="2"/>
<feComposite in2="hardAlpha" operator="out"/>
<feColorMatrix type="matrix" values="0 0 0 0 0 0 0 0 0 0 0 0 0 0 0 0 0 0 0.25 0"/>
<feBlend mode="normal" in2="BackgroundImageFix" result="effect1_dropShadow_1_15"/>
<feBlend mode="normal" in="SourceGraphic" in2="effect1_dropShadow_1_15" result="shape"/>
</filter>
<filter id="filter4_d_1_15" x="108" y="29" width="12" height="83" filterUnits="userSpaceOnUse" color-interpolation-filters="sRGB">
<feFlood flood-opacity="0" result="BackgroundImageFix"/>
<feColorMatrix in="SourceAlpha" type="matrix" values="0 0 0 0 0 0 0 0 0 0 0 0 0 0 0 0 0 0 127 0" result="hardAlpha"/>
<feOffset dy="4"/>
<feGaussianBlur stdDeviation="2"/>
<feComposite in2="hardAlpha" operator="out"/>
<feColorMatrix type="matrix" values="0 0 0 0 0 0 0 0 0 0 0 0 0 0 0 0 0 0 0.25 0"/>
<feBlend mode="normal" in2="BackgroundImageFix" result="effect1_dropShadow_1_15"/>
<feBlend mode="normal" in="SourceGraphic" in2="effect1_dropShadow_1_15" result="shape"/>
</filter>
<clipPath id="clip0_1_15">
<rect width="392" height="158" fill="white"/>
</clipPath>
</defs>
</svg>
