<svg width="210" height="85" viewBox="0 0 210 85" fill="none" xmlns="http://www.w3.org/2000/svg">
<g clip-path="url(#clip0_8_24)">
<g filter="url(#filter0_d_8_24)">
<path d="M100.591 60.4545L56.6818 82.8182V74.0909L90.3636 57.8636L90.0909 58.4091V57.0455L90.3636 57.5909L56.6818 41.3636V32.6364L100.591 55V60.4545Z" fill="#FF0000"/>
</g>
<g filter="url(#filter1_d_8_24)">
<path d="M100.591 60.4545L56.6818 82.8182V74.0909L90.3636 57.8636L90.0909 58.4091V57.0455L90.3636 57.5909L56.6818 41.3636V32.6364L100.591 55V60.4545Z" fill="#FF0000"/>
</g>
<g filter="url(#filter2_d_8_24)">
<path d="M2.40909 38.4545L46.3182 60.8182V52.0909L12.6364 35.8636L12.9091 36.4091V35.0455L12.6364 35.5909L46.3182 19.3636V10.6364L2.40909 33V38.4545Z" fill="#FF0000"/>
</g>
<g filter="url(#filter3_d_8_24)">
<path d="M2.40909 38.4545L46.3182 60.8182V52.0909L12.6364 35.8636L12.9091 36.4091V35.0455L12.6364 35.5909L46.3182 19.3636V10.6364L2.40909 33V38.4545Z" fill="#FF0000"/>
</g>
<path d="M99.332 27.0039L98.1133 28.3867L100.035 33.4961L100.504 33.2383L98.7695 28.6211L100.012 27.1914L100.316 27.3203L99.1328 28.6914L100.773 33.0625C100.867 32.9922 100.922 32.9492 100.938 32.9336L101.324 32.6055C101.559 32.418 101.707 32.2852 101.77 32.207C101.973 33.0977 102.285 33.8945 102.707 34.5977C102.48 34.582 102.316 34.5742 102.215 34.5742C101.473 34.5742 100.93 34.6914 100.586 34.9258L102.707 40.6797L104.465 42.0391H98.5469L100.164 40.6797L98.8633 37.2578C98.0039 38.125 97.3438 38.9492 96.8828 39.7305L96.6133 39.6602C97.0742 38.8945 97.7617 38.0391 98.6758 37.0938L98.7695 36.9766L98.5469 36.4609C97.6172 37.2344 96.8477 38.1328 96.2383 39.1562L96.0273 38.8164C95.6211 38.168 95.1016 37.4297 94.4688 36.6016L94.3516 36.4609C93.75 37.7969 93.4492 38.8828 93.4492 39.7188C93.4492 40.2109 93.5312 40.6289 93.6953 40.9727C93.8672 41.3086 94.2734 41.875 94.9141 42.6719C94.9688 42.7422 95.0547 42.8516 95.1719 43H88.8438L88.6094 42.6836H94.5742L94.375 42.4375C93.8594 41.8125 93.5195 41.3281 93.3555 40.9844C93.1992 40.6328 93.1211 40.2227 93.1211 39.7539C93.1211 38.957 93.4453 37.7695 94.0938 36.1914L93.5781 35.6523C93.4766 35.9023 93.3477 36.2695 93.1914 36.7539L92.8047 37.9492C92.5938 38.5898 92.4883 39.1211 92.4883 39.543C92.4883 39.9805 92.5625 40.3438 92.7109 40.6328C92.8594 40.9219 93.1719 41.3164 93.6484 41.8164C93.6953 41.8633 93.7656 41.9375 93.8594 42.0391H88C89.1172 41.4609 90 40.6836 90.6484 39.707C91.3047 38.7305 91.9531 37.2227 92.5938 35.1836L92.6406 35.0195C92.2266 34.668 91.6289 34.4531 90.8477 34.375C91.2773 33.7344 91.6094 33.0664 91.8438 32.3711C91.9531 32.4727 92.0195 32.5352 92.043 32.5586L92.5703 33.0508C92.75 33.2227 92.9648 33.3984 93.2148 33.5781L93.4258 33.0625L93.2852 32.9453C92.8945 32.6016 92.5664 32.3242 92.3008 32.1133L92.1953 32.0312L92.3828 31.7734C92.7969 32.0469 93.1953 32.3633 93.5781 32.7227L95.1719 28.3398L93.9297 27.0039H99.332ZM96.4375 30.7656L95.1484 34.1641C95.2188 34.2422 95.2578 34.2891 95.2656 34.3047L95.7461 34.8438C96.0039 35.125 96.332 35.5625 96.7305 36.1562L96.8477 36.332C97.1836 35.9102 97.582 35.4922 98.043 35.0781L96.4375 30.7656ZM95.9102 29.4062L94.0469 34.3281C94.6406 34.9375 95.1523 35.5391 95.582 36.1328L96.1211 36.8828C96.1289 36.8906 96.168 36.9414 96.2383 37.0352C96.3086 36.9648 96.3477 36.9219 96.3555 36.9062L96.5195 36.707C96.543 36.6758 96.5859 36.625 96.6484 36.5547C96.1016 35.7109 95.4648 34.9492 94.7383 34.2695L96.2383 30.3086L95.9102 29.4062ZM102.801 32.7695C102.973 33.4727 103.402 34.4375 104.09 35.6641C103.918 35.6406 103.82 35.6289 103.797 35.6289L102.848 35.5469C102.418 35.5078 102.105 35.4883 101.91 35.4883C101.879 35.4883 101.801 35.4922 101.676 35.5L103.633 40.6914L106.246 43H99.4609L99.2383 42.6836H105.461L103.352 40.8203L101.266 35.3008C101.531 35.2305 101.836 35.1953 102.18 35.1953C102.602 35.1953 103.07 35.2305 103.586 35.3008L103.445 35.043C102.945 34.1211 102.609 33.2891 102.438 32.5469L102.801 32.7695ZM106.645 27.0039H112.246L110.594 28.6094V41.1367H110.688L111.109 41.1719H111.215V28.7266L112.48 27.4492L112.645 27.707L111.508 28.8672V41.1719C111.859 41.2031 112.195 41.2188 112.516 41.2188C113.758 41.2188 114.695 40.9453 115.328 40.3984C115.969 39.8438 116.398 38.9336 116.617 37.668C117.352 39.8008 118.105 41.2578 118.879 42.0391H106.645L108.262 40.7148V28.4922L106.645 27.0039ZM120.027 41.9453L119.5 43H107.266L106.973 42.6836H119.371L119.711 41.9453C118.852 40.8906 118.164 39.7148 117.648 38.418L117.602 38.2891L117.977 38.4297L118.059 38.6289C118.582 39.7852 119.207 40.8516 119.934 41.8281L120.027 41.9453ZM132.496 27.0039L132.309 27.2266C131.512 28.2031 130.879 29.3242 130.41 30.5898C130.332 30.4102 130.273 30.2773 130.234 30.1914C129.805 29.2539 129.344 28.6484 128.852 28.375C128.359 28.1016 127.477 27.9648 126.203 27.9648C125.617 27.9648 124.914 27.9844 124.094 28.0234V33.4141H124.844V28.6445C125.438 28.5898 126.004 28.5625 126.543 28.5625C127.535 28.5625 128.266 28.668 128.734 28.8789C129.203 29.0898 129.621 29.5 129.988 30.1094C129.879 30.0312 129.801 29.9727 129.754 29.9336C129.121 29.4336 128.664 29.1367 128.383 29.043C128.102 28.9492 127.547 28.9023 126.719 28.9023C126.469 28.9023 126.023 28.918 125.383 28.9492L125.137 28.9609V33.4141H127.293L128.805 31.3398V36.3906L127.293 34.4336H124.094V41.0078H124.844V34.9844H127.387L127.691 35.2891H125.137V41.0078C126.73 41.0078 127.863 40.8945 128.535 40.668C129.207 40.4414 129.734 39.9961 130.117 39.332L130.738 38.2656C130.762 38.2188 130.809 38.1328 130.879 38.0078C131.082 38.8672 131.332 39.5547 131.629 40.0703C131.934 40.5859 132.434 41.1875 133.129 41.875H119.992L121.773 40.5156V35.2891C121.117 35.3672 120.523 35.5703 119.992 35.8984L119.828 35.6523C120.305 35.3086 120.953 35.0859 121.773 34.9844V34.4336C121.641 34.418 121.547 34.4102 121.492 34.4102C120.695 34.4102 119.969 34.7031 119.312 35.2891C119.672 34.0391 120.492 33.4141 121.773 33.4141V28.4102L119.992 27.0039H132.496ZM133.059 27.8242L132.977 27.9297C132.023 29.2109 131.387 30.2852 131.066 31.1523L130.867 30.9062C131.391 29.6953 132.066 28.5859 132.895 27.5781L133.059 27.8242ZM129.613 31.7266V36.9062L129.32 36.7539V31.5742L129.613 31.7266ZM134.465 41.9453L133.855 43H121.059L120.871 42.6836H133.703L134.102 41.9453C132.977 40.9062 132.184 39.7969 131.723 38.6172L132.098 38.7578C132.527 39.7578 133.254 40.7578 134.277 41.7578L134.465 41.9453ZM149.184 27.0039L146.605 28.6914L142.855 33.4609L147.145 40.5039L149.184 42.0391H143.137L144.625 40.5977L141.953 36.2383L138.648 40.5039L140.57 43H134.16L133.984 42.6836H139.949L138.273 40.5039L141.789 35.9453L141.461 35.4297L137.629 40.2812L139.059 42.0391H133.68L136.422 40.2812L140.957 34.5391L137.301 28.5742L135.074 27.0039H141.262L139.727 28.3398L142.34 32.6055L142.762 32.0664L140.57 28.5742L141.871 27.332L142.082 27.5312L140.957 28.5742L142.949 31.832L145.492 28.5742L144.027 27.0039H149.184ZM149.605 27.8945L147.32 29.2422L144.004 33.543L148.047 40.2227L150.906 43H143.629L143.418 42.6836H150.156L147.777 40.375L143.629 33.543L147.109 29.043L149.43 27.6602L149.605 27.8945Z" fill="white"/>
<g filter="url(#filter4_d_8_24)">
<line x1="51" y1="5" x2="51" y2="71" stroke="#FF8A00" stroke-width="4"/>
</g>
<path d="M143.523 58.1172H143.242C142.992 58.1172 142.789 58.0703 142.633 57.9766C142.383 57.8359 142.086 57.3047 141.742 56.3828L137.289 44.5469H135.883V43.9375H141.18V44.5469H139.305L143.547 55.6094L147.461 44.5469H145.586V43.9375H149.523V44.5469H148.352L143.523 58.1172ZM155.359 48.3906C154.953 48.3906 154.57 48.4844 154.211 48.6719C153.117 49.2188 152.531 50.3906 152.453 52.1875L154.938 52.2578C155.656 52.2734 156.211 52.2422 156.602 52.1641C157.352 51.9922 157.727 51.5156 157.727 50.7344C157.727 50.3906 157.664 50.0703 157.539 49.7734C157.18 48.8516 156.453 48.3906 155.359 48.3906ZM159.438 55.75C159.344 55.9688 159.234 56.1875 159.109 56.4062C158.312 57.625 157.07 58.2344 155.383 58.2344C154.32 58.2344 153.375 57.9609 152.547 57.4141C151.156 56.4766 150.461 55.0391 150.461 53.1016C150.461 52.0391 150.68 51.0859 151.117 50.2422C151.961 48.6172 153.359 47.8047 155.312 47.8047C156.312 47.8047 157.195 48.0312 157.961 48.4844C159.039 49.1094 159.578 49.9531 159.578 51.0156C159.578 51.5938 159.367 52.0391 158.945 52.3516C158.398 52.7422 157.172 52.9219 155.266 52.8906L152.453 52.8438C152.469 53.5 152.539 54.1016 152.664 54.6484C153.086 56.6016 154.117 57.5781 155.758 57.5781C155.898 57.5781 156.047 57.5703 156.203 57.5547C157.422 57.3984 158.305 56.7266 158.852 55.5391L159.438 55.75ZM166.352 57.4141C166.445 57.4141 166.523 57.4219 166.586 57.4375C166.82 57.4688 166.938 57.6562 166.938 58H161.148V57.4141C161.68 57.4141 162.062 57.375 162.297 57.2969C162.703 57.1562 162.906 56.7266 162.906 56.0078V48.625H161.148V48.0391H164.547L164.641 50.3594C164.844 49.8906 165.117 49.4688 165.461 49.0938C166.195 48.2969 167.031 47.8984 167.969 47.8984C168.109 47.8984 168.258 47.9141 168.414 47.9453C169.133 48.1016 169.492 48.5312 169.492 49.2344C169.492 49.3281 169.477 49.4219 169.445 49.5156C169.32 49.9688 169.023 50.1953 168.555 50.1953C168.461 50.1953 168.367 50.1797 168.273 50.1484C168.055 50.0859 167.82 49.8359 167.57 49.3984C167.352 49.0078 167.109 48.8125 166.844 48.8125C166.609 48.8281 166.32 49 165.977 49.3281C165.102 50.1875 164.664 51.3281 164.664 52.75V57.4141H166.352ZM174.062 57.6016C175.141 57.6016 175.867 57.2734 176.242 56.6172C176.383 56.3828 176.453 56.125 176.453 55.8438C176.453 55.1875 175.977 54.625 175.023 54.1562C174.82 54.0469 174.484 53.8906 174.016 53.6875C172.734 53.1562 171.883 52.6562 171.461 52.1875C171.008 51.6719 170.781 51.0703 170.781 50.3828C170.781 49.3047 171.375 48.5469 172.562 48.1094C173.109 47.9062 173.703 47.8047 174.344 47.8047C175.375 47.8047 176.266 48.0234 177.016 48.4609C177.016 48.0078 177.125 47.75 177.344 47.6875C177.438 47.6719 177.539 47.6641 177.648 47.6641V50.5938H177.039C177.008 49.1562 176.211 48.4297 174.648 48.4141C173.477 48.4141 172.75 48.7578 172.469 49.4453C172.391 49.6328 172.352 49.8281 172.352 50.0312C172.352 50.7031 172.836 51.2734 173.805 51.7422C174.023 51.8516 174.367 52 174.836 52.1875C176.102 52.7031 176.945 53.1953 177.367 53.6641C177.82 54.1641 178.047 54.7578 178.047 55.4453C178.047 56.7109 177.375 57.5547 176.031 57.9766C175.516 58.1484 174.953 58.2344 174.344 58.2344C173.219 58.2188 172.242 57.9375 171.414 57.3906C171.414 57.7969 171.312 58.0312 171.109 58.0938C171.016 58.1094 170.906 58.1172 170.781 58.1172V54.5547H171.438C171.469 56.5703 172.344 57.5859 174.062 57.6016ZM179.453 48.625V48.0391H181.094V45.8125L182.852 45.3203V48.0391H186.484V48.625H182.852V55.75C182.867 56.9219 183.297 57.5234 184.141 57.5547C184.891 57.4453 185.461 56.7422 185.852 55.4453L186.484 55.5625C186.484 55.5781 186.484 55.5938 186.484 55.6094C186.125 57.375 185.227 58.2578 183.789 58.2578C182.102 58.1953 181.203 57.1875 181.094 55.2344V48.625H179.453ZM195.766 58.2344C194.672 58.2188 194.031 57.5156 193.844 56.125C193.703 56.4531 193.492 56.7656 193.211 57.0625C192.43 57.8438 191.469 58.2344 190.328 58.2344C189.859 58.2344 189.414 58.1484 188.992 57.9766C187.945 57.5391 187.422 56.7266 187.422 55.5391C187.422 55.1953 187.469 54.875 187.562 54.5781C188.094 53.0469 190.195 52.2812 193.867 52.2812V50.8047C193.82 49.2891 193.062 48.4844 191.594 48.3906C190.969 48.3906 190.508 48.5859 190.211 48.9766C190.133 49.0859 189.984 49.4297 189.766 50.0078C189.594 50.4609 189.328 50.6875 188.969 50.6875C188.891 50.6875 188.812 50.6797 188.734 50.6641C188.281 50.5859 188.055 50.3047 188.055 49.8203C188.055 49.5547 188.148 49.2891 188.336 49.0234C188.93 48.2109 190.102 47.8047 191.852 47.8047C191.992 47.8047 192.133 47.8047 192.273 47.8047C194.508 47.9297 195.625 49.1094 195.625 51.3438V56.2891C195.641 57.0703 195.852 57.4766 196.258 57.5078C196.758 57.4922 197.062 56.9141 197.172 55.7734L197.781 55.7969C197.781 55.875 197.773 55.9609 197.758 56.0547C197.633 57.5078 196.969 58.2344 195.766 58.2344ZM191.102 57.2969C191.445 57.2969 191.797 57.2188 192.156 57.0625C193.062 56.625 193.633 55.8672 193.867 54.7891V52.9141C192.648 52.9297 191.719 53.0078 191.078 53.1484C189.875 53.4297 189.273 54.0938 189.273 55.1406C189.273 55.4062 189.297 55.6484 189.344 55.8672C189.562 56.8203 190.148 57.2969 191.102 57.2969ZM203.195 57.4141C203.289 57.4141 203.367 57.4219 203.43 57.4375C203.664 57.4688 203.781 57.6562 203.781 58H198.625V57.4141C199.156 57.4141 199.539 57.375 199.773 57.2969C200.18 57.1562 200.383 56.7266 200.383 56.0078V43.3516H198.625V42.7656H202.141V53.0078L206.875 48.625H205.117V48.0391H209.102C209.102 48.1172 209.094 48.1953 209.078 48.2734C209.047 48.5078 208.859 48.625 208.516 48.625C208.359 48.625 208.219 48.6406 208.094 48.6719C207.812 48.7344 207.398 49.0234 206.852 49.5391L204.648 51.6016L208.422 57.4141H209.266C209.359 57.4141 209.438 57.4219 209.5 57.4375C209.734 57.4688 209.852 57.6562 209.852 58H206.734L203.43 52.75L202.141 53.9453V57.4141H203.195Z" fill="white"/>
<path d="M100.215 71.835C100.565 71.605 100.935 71.44 101.325 71.34C101.715 71.24 102.13 71.19 102.57 71.19C104.16 71.19 104.955 71.935 104.955 73.425V76.605C104.955 77.085 105.145 77.325 105.525 77.325C105.695 77.325 105.845 77.295 105.975 77.235L105.99 77.925C105.72 78.075 105.43 78.15 105.12 78.15C104.33 78.15 103.925 77.7 103.905 76.8V76.77C103.695 77.13 103.395 77.45 103.005 77.73C102.625 78.01 102.165 78.15 101.625 78.15C101.185 78.15 100.735 78.015 100.275 77.745C99.825 77.475 99.6 76.985 99.6 76.275C99.6 75.435 99.93 74.885 100.59 74.625C101.26 74.355 101.97 74.22 102.72 74.22C102.92 74.22 103.12 74.225 103.32 74.235C103.53 74.245 103.725 74.26 103.905 74.28V73.68C103.905 73.2 103.8 72.81 103.59 72.51C103.39 72.21 102.99 72.06 102.39 72.06C101.9 72.06 101.47 72.15 101.1 72.33L100.845 73.485L99.975 73.38L100.215 71.835ZM103.905 75.495V74.985C103.715 74.975 103.515 74.96 103.305 74.94C103.095 74.92 102.88 74.91 102.66 74.91C102.16 74.91 101.705 74.99 101.295 75.15C100.895 75.3 100.695 75.635 100.695 76.155C100.695 76.585 100.83 76.88 101.1 77.04C101.37 77.2 101.65 77.28 101.94 77.28C102.4 77.28 102.83 77.12 103.23 76.8C103.64 76.48 103.865 76.045 103.905 75.495ZM109.941 78H106.551V77.145H107.721V68.535H106.536V67.68H108.771V77.145H109.941V78ZM116.76 76.08C116.67 76.65 116.385 77.14 115.905 77.55C115.425 77.95 114.775 78.15 113.955 78.15C113.015 78.15 112.255 77.855 111.675 77.265C111.095 76.675 110.805 75.84 110.805 74.76C110.805 73.72 111.08 72.865 111.63 72.195C112.18 71.525 112.925 71.19 113.865 71.19C114.785 71.19 115.485 71.48 115.965 72.06C116.445 72.64 116.69 73.325 116.7 74.115C116.7 74.375 116.67 74.64 116.61 74.91H111.915C111.975 76.47 112.68 77.25 114.03 77.25C114.56 77.25 114.975 77.125 115.275 76.875C115.575 76.625 115.775 76.295 115.875 75.885L116.76 76.08ZM115.59 74.13C115.64 73.63 115.52 73.16 115.23 72.72C114.95 72.28 114.485 72.06 113.835 72.06C113.215 72.06 112.76 72.265 112.47 72.675C112.18 73.085 112 73.57 111.93 74.13H115.59ZM124.605 78H121.665V77.145H122.535L120.975 75.225L119.4 77.145H120.195V78H117.42V77.145H118.335L120.435 74.67L118.32 72.18H117.42V71.325H120.465V72.18H119.565L121.065 74.07L122.61 72.18H121.815V71.325H124.485V72.18H123.705L121.62 74.61L123.765 77.145H124.605V78ZM125.197 74.085H128.662V75H125.197V74.085ZM136.646 72.18H135.836L133.391 78H132.581L130.031 72.18H129.251V71.325H132.326V72.18H131.171L133.031 76.575H133.121L134.786 72.18H133.721V71.325H136.646V72.18ZM143.054 76.08C142.964 76.65 142.679 77.14 142.199 77.55C141.719 77.95 141.069 78.15 140.249 78.15C139.309 78.15 138.549 77.855 137.969 77.265C137.389 76.675 137.099 75.84 137.099 74.76C137.099 73.72 137.374 72.865 137.924 72.195C138.474 71.525 139.219 71.19 140.159 71.19C141.079 71.19 141.779 71.48 142.259 72.06C142.739 72.64 142.984 73.325 142.994 74.115C142.994 74.375 142.964 74.64 142.904 74.91H138.209C138.269 76.47 138.974 77.25 140.324 77.25C140.854 77.25 141.269 77.125 141.569 76.875C141.869 76.625 142.069 76.295 142.169 75.885L143.054 76.08ZM141.884 74.13C141.934 73.63 141.814 73.16 141.524 72.72C141.244 72.28 140.779 72.06 140.129 72.06C139.509 72.06 139.054 72.265 138.764 72.675C138.474 73.085 138.294 73.57 138.224 74.13H141.884ZM147.835 71.205C148.315 71.205 148.695 71.32 148.975 71.55L149.23 73.23L148.375 73.335L148.12 72.195C147.95 72.135 147.78 72.105 147.61 72.105C147.22 72.105 146.895 72.27 146.635 72.6C146.375 72.92 146.245 73.34 146.245 73.86V77.145H147.79V78H144.025V77.145H145.195V72.18H143.995V71.325H146.185V72.525C146.315 72.155 146.525 71.845 146.815 71.595C147.115 71.335 147.455 71.205 147.835 71.205ZM155.859 76.065C155.859 76.715 155.584 77.225 155.034 77.595C154.494 77.965 153.824 78.15 153.024 78.15C152.554 78.15 152.084 78.09 151.614 77.97C151.154 77.84 150.779 77.68 150.489 77.49L150.699 75.975L151.539 76.065L151.494 76.95C151.954 77.17 152.449 77.28 152.979 77.28C153.449 77.28 153.864 77.19 154.224 77.01C154.594 76.82 154.779 76.535 154.779 76.155C154.779 75.785 154.639 75.525 154.359 75.375C154.079 75.225 153.729 75.115 153.309 75.045C152.899 74.975 152.484 74.89 152.064 74.79C151.644 74.69 151.294 74.52 151.014 74.28C150.734 74.03 150.594 73.645 150.594 73.125C150.594 72.415 150.854 71.915 151.374 71.625C151.894 71.335 152.459 71.19 153.069 71.19C153.529 71.19 153.959 71.25 154.359 71.37C154.769 71.49 155.114 71.635 155.394 71.805L155.559 73.365L154.689 73.47L154.524 72.39C154.104 72.17 153.649 72.06 153.159 72.06C152.739 72.06 152.394 72.14 152.124 72.3C151.854 72.46 151.719 72.71 151.719 73.05C151.719 73.4 151.859 73.65 152.139 73.8C152.419 73.94 152.764 74.045 153.174 74.115C153.584 74.175 153.994 74.255 154.404 74.355C154.814 74.455 155.159 74.635 155.439 74.895C155.719 75.145 155.859 75.535 155.859 76.065ZM161.941 76.2C161.761 77.5 161.056 78.15 159.826 78.15C159.156 78.15 158.641 77.96 158.281 77.58C157.931 77.2 157.756 76.685 157.756 76.035V72.165H156.676V71.325H157.756V69.18H158.806V71.325H161.416V72.165H158.806V75.9C158.806 76.3 158.891 76.625 159.061 76.875C159.241 77.115 159.531 77.235 159.931 77.235C160.191 77.235 160.431 77.155 160.651 76.995C160.881 76.835 161.046 76.485 161.146 75.945L161.941 76.2ZM163.233 71.835C163.583 71.605 163.953 71.44 164.343 71.34C164.733 71.24 165.148 71.19 165.588 71.19C167.178 71.19 167.973 71.935 167.973 73.425V76.605C167.973 77.085 168.163 77.325 168.543 77.325C168.713 77.325 168.863 77.295 168.993 77.235L169.008 77.925C168.738 78.075 168.448 78.15 168.138 78.15C167.348 78.15 166.943 77.7 166.923 76.8V76.77C166.713 77.13 166.413 77.45 166.023 77.73C165.643 78.01 165.183 78.15 164.643 78.15C164.203 78.15 163.753 78.015 163.293 77.745C162.843 77.475 162.618 76.985 162.618 76.275C162.618 75.435 162.948 74.885 163.608 74.625C164.278 74.355 164.988 74.22 165.738 74.22C165.938 74.22 166.138 74.225 166.338 74.235C166.548 74.245 166.743 74.26 166.923 74.28V73.68C166.923 73.2 166.818 72.81 166.608 72.51C166.408 72.21 166.008 72.06 165.408 72.06C164.918 72.06 164.488 72.15 164.118 72.33L163.863 73.485L162.993 73.38L163.233 71.835ZM166.923 75.495V74.985C166.733 74.975 166.533 74.96 166.323 74.94C166.113 74.92 165.898 74.91 165.678 74.91C165.178 74.91 164.723 74.99 164.313 75.15C163.913 75.3 163.713 75.635 163.713 76.155C163.713 76.585 163.848 76.88 164.118 77.04C164.388 77.2 164.668 77.28 164.958 77.28C165.418 77.28 165.848 77.12 166.248 76.8C166.658 76.48 166.883 76.045 166.923 75.495ZM176.904 78H173.754V77.145H174.759L172.929 74.88H171.744V77.145H172.704V78H169.524V77.145H170.679V68.535H169.494V67.68H171.744V74.07H172.944L174.474 72.18H173.439V71.325H176.559V72.18H175.539L173.754 74.385L175.959 77.145H176.904V78ZM177.917 78V76.38H179.372V78H177.917ZM184.486 71.205C184.966 71.205 185.346 71.32 185.626 71.55L185.881 73.23L185.026 73.335L184.771 72.195C184.601 72.135 184.431 72.105 184.261 72.105C183.871 72.105 183.546 72.27 183.286 72.6C183.026 72.92 182.896 73.34 182.896 73.86V77.145H184.441V78H180.676V77.145H181.846V72.18H180.646V71.325H182.836V72.525C182.966 72.155 183.176 71.845 183.466 71.595C183.766 71.335 184.106 71.205 184.486 71.205ZM194.714 78H192.464V76.74C192.254 77.16 191.944 77.5 191.534 77.76C191.134 78.02 190.669 78.15 190.139 78.15C189.489 78.15 188.939 77.95 188.489 77.55C188.049 77.14 187.829 76.49 187.829 75.6V72.18H186.659V71.325H188.879V75.3C188.879 76.02 189.029 76.525 189.329 76.815C189.629 77.105 190.014 77.25 190.484 77.25C191.054 77.25 191.519 77.035 191.879 76.605C192.249 76.175 192.444 75.72 192.464 75.24V72.18H191.069V71.325H193.514V77.145H194.714V78Z" fill="white"/>
</g>
<defs>
<filter id="filter0_d_8_24" x="52.6818" y="32.6364" width="51.9091" height="58.1818" filterUnits="userSpaceOnUse" color-interpolation-filters="sRGB">
<feFlood flood-opacity="0" result="BackgroundImageFix"/>
<feColorMatrix in="SourceAlpha" type="matrix" values="0 0 0 0 0 0 0 0 0 0 0 0 0 0 0 0 0 0 127 0" result="hardAlpha"/>
<feOffset dy="4"/>
<feGaussianBlur stdDeviation="2"/>
<feComposite in2="hardAlpha" operator="out"/>
<feColorMatrix type="matrix" values="0 0 0 0 0 0 0 0 0 0 0 0 0 0 0 0 0 0 0.25 0"/>
<feBlend mode="normal" in2="BackgroundImageFix" result="effect1_dropShadow_8_24"/>
<feBlend mode="normal" in="SourceGraphic" in2="effect1_dropShadow_8_24" result="shape"/>
</filter>
<filter id="filter1_d_8_24" x="52.6818" y="32.6364" width="51.9091" height="58.1818" filterUnits="userSpaceOnUse" color-interpolation-filters="sRGB">
<feFlood flood-opacity="0" result="BackgroundImageFix"/>
<feColorMatrix in="SourceAlpha" type="matrix" values="0 0 0 0 0 0 0 0 0 0 0 0 0 0 0 0 0 0 127 0" result="hardAlpha"/>
<feOffset dy="4"/>
<feGaussianBlur stdDeviation="2"/>
<feComposite in2="hardAlpha" operator="out"/>
<feColorMatrix type="matrix" values="0 0 0 0 0 0 0 0 0 0 0 0 0 0 0 0 0 0 0.25 0"/>
<feBlend mode="normal" in2="BackgroundImageFix" result="effect1_dropShadow_8_24"/>
<feBlend mode="normal" in="SourceGraphic" in2="effect1_dropShadow_8_24" result="shape"/>
</filter>
<filter id="filter2_d_8_24" x="-1.5909" y="10.6364" width="51.9091" height="58.1818" filterUnits="userSpaceOnUse" color-interpolation-filters="sRGB">
<feFlood flood-opacity="0" result="BackgroundImageFix"/>
<feColorMatrix in="SourceAlpha" type="matrix" values="0 0 0 0 0 0 0 0 0 0 0 0 0 0 0 0 0 0 127 0" result="hardAlpha"/>
<feOffset dy="4"/>
<feGaussianBlur stdDeviation="2"/>
<feComposite in2="hardAlpha" operator="out"/>
<feColorMatrix type="matrix" values="0 0 0 0 0 0 0 0 0 0 0 0 0 0 0 0 0 0 0.25 0"/>
<feBlend mode="normal" in2="BackgroundImageFix" result="effect1_dropShadow_8_24"/>
<feBlend mode="normal" in="SourceGraphic" in2="effect1_dropShadow_8_24" result="shape"/>
</filter>
<filter id="filter3_d_8_24" x="-1.5909" y="10.6364" width="51.9091" height="58.1818" filterUnits="userSpaceOnUse" color-interpolation-filters="sRGB">
<feFlood flood-opacity="0" result="BackgroundImageFix"/>
<feColorMatrix in="SourceAlpha" type="matrix" values="0 0 0 0 0 0 0 0 0 0 0 0 0 0 0 0 0 0 127 0" result="hardAlpha"/>
<feOffset dy="4"/>
<feGaussianBlur stdDeviation="2"/>
<feComposite in2="hardAlpha" operator="out"/>
<feColorMatrix type="matrix" values="0 0 0 0 0 0 0 0 0 0 0 0 0 0 0 0 0 0 0.25 0"/>
<feBlend mode="normal" in2="BackgroundImageFix" result="effect1_dropShadow_8_24"/>
<feBlend mode="normal" in="SourceGraphic" in2="effect1_dropShadow_8_24" result="shape"/>
</filter>
<filter id="filter4_d_8_24" x="45" y="5" width="12" height="74" filterUnits="userSpaceOnUse" color-interpolation-filters="sRGB">
<feFlood flood-opacity="0" result="BackgroundImageFix"/>
<feColorMatrix in="SourceAlpha" type="matrix" values="0 0 0 0 0 0 0 0 0 0 0 0 0 0 0 0 0 0 127 0" result="hardAlpha"/>
<feOffset dy="4"/>
<feGaussianBlur stdDeviation="2"/>
<feComposite in2="hardAlpha" operator="out"/>
<feColorMatrix type="matrix" values="0 0 0 0 0 0 0 0 0 0 0 0 0 0 0 0 0 0 0.25 0"/>
<feBlend mode="normal" in2="BackgroundImageFix" result="effect1_dropShadow_8_24"/>
<feBlend mode="normal" in="SourceGraphic" in2="effect1_dropShadow_8_24" result="shape"/>
</filter>
<clipPath id="clip0_8_24">
<rect width="210" height="85" fill="white"/>
</clipPath>
</defs>
</svg>
